<?xml version="1.0" encoding="UTF-8"?><svg id="Calque_1" xmlns="http://www.w3.org/2000/svg" viewBox="0 0 175.349 39.065"><g id="oakley"><path d="M109.664,27.939c-.564-.143-1.109-.361-1.615-.647-.507-.286-.975-.64-1.388-1.05-.414-.41-.772-.874-1.062-1.379-.291-.504-.514-1.048-.661-1.611-.147-.563-.212-1.146-.212-1.727l-.014-20.895h-22.173l-15.852,15.751.032-15.751-13.743-.013c-2.178-.002-4.354.36-6.429,1.023-2.075.663-4.049,1.645-5.831,2.9-1.781,1.255-3.369,2.782-4.696,4.51-1.194-1.868-2.706-3.536-4.453-4.902-1.747-1.366-3.73-2.432-5.835-3.136C23.627.307,21.402-.036,19.184.003c-2.218.039-4.428.461-6.504,1.239-2.077.778-4.02,1.912-5.718,3.339-1.698,1.427-3.15,3.148-4.274,5.062-1.124,1.914-1.919,4.02-2.338,6.198-.42,2.178-.463,4.428-.13,6.621.332,2.193,1.041,4.328,2.087,6.284,1.046,1.956,2.43,3.732,4.071,5.226,1.641,1.494,3.538,2.707,5.582,3.567,2.045.859,4.236,1.366,6.451,1.494,2.214.127,4.45-.125,6.579-.745,2.129-.62,4.153-1.608,5.954-2.904,1.801-1.297,3.379-2.902,4.643-4.725,1.263-1.823,2.212-3.864,2.799-6.002.327-1.013.697-2.024,1.113-3.035.382-1.043.815-2.085,1.306-3.124.598-1.294,1.388-2.5,2.337-3.564.95-1.064,2.059-1.985,3.279-2.725,1.22-.739,2.55-1.296,3.933-1.645,1.382-.349,2.817-.491,4.241-.422l2.477-.008-.011,5.106-5.072.011c-.852-.018-1.707.078-2.534.286-.827.208-1.626.529-2.367.95-.742.421-1.427.942-2.03,1.545-.603.604-1.124,1.288-1.545,2.03-.421.742-.741,1.541-.949,2.368-.208.827-.304,1.682-.285,2.535h14.79s0,13.285,0,13.285l9.616-.002.003-21.421,21.397,21.425h13.888l-22.162-22.092,15.1-14.578-.009,20.194c0,1.483.21,2.967.607,4.396.398,1.43.99,2.806,1.754,4.078.764,1.272,1.701,2.44,2.775,3.463,1.075,1.023,2.288,1.9,3.597,2.6,1.309.7,2.712,1.223,4.159,1.549,1.448.326,2.939.457,4.421.388l26.934-.003.022-10.125-27.779.016c-.582,0-1.165-.057-1.729-.199h0ZM28.823,22.129c-.221.824-.55,1.619-.977,2.358-.426.739-.95,1.422-1.553,2.025s-1.286,1.127-2.025,1.554c-.738.427-1.534.756-2.358.977-.824.221-1.677.333-2.53.333s-1.706-.112-2.53-.333c-.824-.221-1.619-.55-2.358-.977-.739-.427-1.422-.95-2.025-1.554-.603-.603-1.127-1.286-1.553-2.025-.427-.739-.756-1.534-.977-2.358-.221-.824-.333-1.677-.333-2.53s.112-1.706.333-2.53c.221-.824.55-1.619.977-2.358.427-.739.95-1.421,1.553-2.024.603-.603,1.286-1.127,2.025-1.553.739-.427,1.534-.756,2.358-.977.823-.221,1.676-.333,2.529-.333s1.706.112,2.53.333c.824.221,1.619.55,2.358.977.739.427,1.422.95,2.025,1.553.603.603,1.127,1.286,1.553,2.024.427.739.756,1.534.977,2.358.221.824.333,1.677.333,2.53s-.112,1.706-.333,2.53h0Z" style="fill:#231f20; fill-rule:evenodd;"/><path d="M175.338.627h-9.922c.03.848-.053,1.7-.248,2.525-.194.826-.501,1.625-.907,2.37-.407.745-.914,1.434-1.503,2.044s-1.26,1.142-1.989,1.575c-.729.433-1.517.768-2.335.993-.817.224-1.665.339-2.513.339-.848,0-1.697-.114-2.514-.338-.818-.224-1.606-.559-2.336-.991-.73-.433-1.401-.964-1.99-1.574-.589-.61-1.097-1.299-1.504-2.043-.407-.744-.713-1.544-.908-2.37-.195-.826-.279-1.677-.249-2.525h-22.817c-.809.083-1.608.266-2.372.544-.765.278-1.495.651-2.168,1.108-.673.457-1.289.997-1.831,1.604-.541.607-1.007,1.281-1.384,2.002-.376.721-.663,1.489-.852,2.281-.189.791-.28,1.606-.271,2.42l24.12-.003c.048.026.096.057.143.097.877,1.414,1.918,2.728,3.096,3.903,1.179,1.176,2.495,2.214,3.913,3.086,1.418.872,2.938,1.579,4.518,2.102l.009,18.475,9.824-.006.025-18.219c2.159-.488,4.235-1.348,6.103-2.537,1.869-1.189,3.528-2.706,4.882-4.46,1.353-1.754,2.4-3.744,3.077-5.853.676-2.109.982-4.335.906-6.548h0Z" style="fill:#231f20; fill-rule:evenodd;"/><path d="M138.96,21.106c-.012-2.182,0-4.365.033-6.547l-24.499.012-.024,9.808h24.523c-.016-1.091-.028-2.182-.033-3.273h0Z" style="fill:#231f20; fill-rule:evenodd;"/></g></svg>